#!OML:ASF H:\Terrain\Patient Classification 1\Walking\steve\steve.ASF
:FULLY-SPECIFIED
:DEGREES
62
root 7.53926 15.8081 -22.3229 7.01718 -2.79826 -4.98704
lowerback 0.401696 3.2779 6.73959
upperback -3.17896 4.61913 3.14388
thorax -3.25153 2.16205 -0.647535
lowerneck -11.2194 0.92004 -3.81051
upperneck 11.5119 2.08385 -1.44303
head 5.29221 0.750476 0.330162
rclavicle 1.52848e-014 -6.52014e-014
rhumerus -27.4275 -11.7487 -81.0558
rradius 37.6626
rwrist -12.7833
rhand -18.8004 -39.3481
rfingers 7.12502
rthumb 7.49784 -69.1952
lclavicle 1.52848e-014 -6.52014e-014
lhumerus -43.0897 12.8748 80.9518
lradius 12.7883
lwrist -8.0487
lhand -17.4831 -9.01323
lfingers 7.12502
lthumb 8.76915 20.7846
rfemur -12.0276 1.55821 31.4542
rtibia 32.0992
rfoot -15.5016 16.6587
rtoes 10.3647
lfemur -37.308 5.56178 -16.7206
ltibia 54.1633
lfoot -16.6559 6.25581
ltoes -15.2975
63
root 7.55849 15.7973 -22.0854 7.14237 -3.17523 -5.34024
lowerback 0.396799 3.40115 7.2809
upperback -3.17511 4.79261 3.13435
thorax -3.19432 2.23423 -0.955207
lowerneck -11.1312 0.85788 -4.01351
upperneck 11.1935 2.00001 -1.29541
head 5.1755 0.718233 0.400464
rclavicle 2.24363e-014 2.78299e-014
rhumerus -24.883 -11.3017 -81.5019
rradius 37.8578
rwrist -12.1271
rhand -17.3582 -41.2719
rfingers 7.12502
rthumb 8.88973 -71.0647
lclavicle 2.24363e-014 2.78299e-014
lhumerus -44.8494 15.579 78.113
lradius 11.9132
lwrist -12.2885
lhand -17.2678 -9.39088
lfingers 7.12502
lthumb 8.97695 20.3981
rfemur -10.7997 1.26665 31.6077
rtibia 31.3357
rfoot -14.7493 17.5783
rtoes 11.7181
lfemur -37.8578 5.42928 -16.3654
ltibia 51.1836
lfoot -17.3155 6.58457
ltoes -15.9108
64
root 7.57348 15.8019 -21.8502 7.23495 -3.74086 -5.53561
lowerback 0.476059 3.58568 7.52046
upperback -3.16665 5.05043 3.13096
thorax -3.19427 2.35547 -1.09825
lowerneck -11.1509 0.887401 -3.93705
upperneck 11.0583 2.04 -1.41475
head 5.13831 0.735523 0.353384
rclavicle -6.47603e-016 -4.21423e-014
rhumerus -23.9687 -10.1394 -81.583
rradius 39.859
rwrist -11.6039
rhand -14.9189 -44.3452
rfingers 7.12502
rthumb 11.243 -74.0239
lclavicle -6.47603e-016 -4.21423e-014
lhumerus -46.7604 17.3403 75.9358
lradius 11.4802
lwrist -15.1415
lhand -17.5288 -8.82929
lfingers 7.12502
lthumb 8.72508 20.9704
rfemur -9.54743 1.0759 31.5518
rtibia 30.4943
rfoot -14.1804 18.5295
rtoes 12.1689
lfemur -38.2649 5.4158 -16.124
ltibia 48.0182
lfoot -17.5269 7.07598
ltoes -15.082
65
root 7.58736 15.8119 -21.6125 7.25888 -4.35201 -5.46664
lowerback 0.542657 3.74253 7.45478
upperback -3.17031 5.26188 3.03141
thorax -3.21637 2.46005 -1.17295
lowerneck -11.2063 1.05336 -3.57682
upperneck 11.2171 2.22878 -1.54518
head 5.19964 0.830427 0.270019
rclavicle 1.2893e-014 3.97569e-015
rhumerus -22.2084 -8.99464 -81.9897
rradius 40.5179
rwrist -12.3734
rhand -13.9744 -41.4261
rfingers 7.12502
rthumb 12.1538 -71.053
lclavicle 1.2893e-014 3.97569e-015
lhumerus -48.659 18.2485 74.2066
lradius 11.1901
lwrist -16.4231
lhand -17.6492 -8.02418
lfingers 7.12502
lthumb 8.60891 21.7803
rfemur -8.20769 0.687662 31.1589
rtibia 29.5401
rfoot -13.5982 19.5947
rtoes 11.6148
lfemur -38.4367 5.35172 -16.0775
ltibia 44.6786
lfoot -17.6404 7.30075
ltoes -14.7595
66
root 7.60195 15.8154 -21.3739 7.3412 -4.84945 -5.25267
lowerback 0.527413 3.84625 7.25329
upperback -3.24666 5.39533 2.89843
thorax -3.28163 2.5267 -1.20394
lowerneck -10.6768 1.26479 -3.59686
upperneck 10.9639 2.45507 -1.31781
head 5.02589 0.964568 0.355397
rclavicle -5.33846e-018 -3.18055e-015
rhumerus -20.399 -7.4918 -82.4689
rradius 40.6207
rwrist -14.5026
rhand -18.1953 -39.9764
rfingers 7.12502
rthumb 8.0818 -69.8019
lclavicle -5.33846e-018 -3.18055e-015
lhumerus -50.5844 18.8287 72.6037
lradius 10.9235
lwrist -17.0319
lhand -16.3919 -8.41427
lfingers 7.12502
lthumb 9.8221 21.3366
rfemur -6.84016 0.414096 30.6258
rtibia 28.4884
rfoot -12.7813 20.4665
rtoes 10.6014
lfemur -38.5785 5.05545 -16.1058
ltibia 41.2033
lfoot -17.5137 7.62059
ltoes -15.6989
67
root 7.61854 15.8133 -21.1324 7.55032 -5.32883 -5.43688
lowerback 0.454376 3.96632 7.53851
upperback -3.33099 5.55809 2.85966
thorax -3.289 2.59667 -1.39862
lowerneck -9.20166 1.642 -4.03672
upperneck 9.5399 2.84766 -0.727412
head 4.31979 1.21423 0.610612
rclavicle -7.05398e-014 -4.53229e-014
rhumerus -18.857 -6.28225 -82.7002
rradius 40.9703
rwrist -15.4018
rhand -19.2935 -38.842
rfingers 7.12502
rthumb 7.02183 -68.7055
lclavicle -7.05398e-014 -4.53229e-014
lhumerus -52.5061 19.5905 70.7794
lradius 10.9182
lwrist -18.4751
lhand -14.7127 -8.56212
lfingers 7.12502
lthumb 11.4418 21.1057
rfemur -5.54842 0.139271 30.4962
rtibia 27.2996
rfoot -11.5391 21.4645
rtoes 10.4323
lfemur -38.78 4.51481 -15.5492
ltibia 37.7295
lfoot -17.2522 8.03337
ltoes -15.3772
68
root 7.63373 15.8185 -20.8868 7.72435 -5.96991 -5.8015
lowerback 0.448142 4.13584 7.96252
upperback -3.30063 5.78914 2.86644
thorax -3.19934 2.70264 -1.62209
lowerneck -9.96621 1.50749 -3.66248
upperneck 9.93084 2.71543 -1.204
head 4.58162 1.12218 0.406154
rclavicle 2.6047e-014 -1.90833e-014
rhumerus -17.6868 -5.30426 -82.6866
rradius 41.9182
rwrist -15.4211
rhand -18.4244 -43.1744
rfingers 7.12502
rthumb 7.86076 -73.0083
lclavicle 2.6047e-014 -1.90833e-014
lhumerus -53.9146 19.2971 70.2242
lradius 11.2495
lwrist -18.0801
lhand -13.7647 -8.45311
lfingers 7.12502
lthumb 12.3559 21.1618
rfemur -4.17944 0.00745058 30.5208
rtibia 25.99
rfoot -10.485 22.2339
rtoes 10.675
lfemur -38.8479 3.87063 -14.5848
ltibia 34.3479
lfoot -17.3922 8.48931
ltoes -13.437
69
root 7.64535 15.8278 -20.6432 7.91553 -6.65178 -6.1228
lowerback 0.308155 4.3892 8.20588
upperback -3.20244 6.10868 2.92428
thorax -2.97467 2.86573 -1.68025
lowerneck -10.6417 1.34077 -3.60028
upperneck 10.3435 2.56293 -1.51536
head 4.82937 1.01705 0.298342
rclavicle 1.8869e-014 -1.19271e-014
rhumerus -16.2681 -4.46988 -82.5822
rradius 42.7674
rwrist -15.7878
rhand -18.7028 -41.6571
rfingers 7.12502
rthumb 7.59201 -71.5009
lclavicle 1.8869e-014 -1.19271e-014
lhumerus -55.093 18.8191 70.0251
lradius 11.4427
lwrist -16.718
lhand -13.2007 -8.53789
lfingers 7.12502
lthumb 12.8997 21.0434
rfemur -2.71524 0.325334 30.5343
rtibia 24.6148
rfoot -9.8392 22.536
rtoes 11.6887
lfemur -38.914 3.23935 -13.577
ltibia 31.1108
lfoot -17.5604 9.044
ltoes -13.6075
70
root 7.65926 15.8271 -20.4035 8.20955 -7.25564 -6.35819
lowerback 0.0752397 4.62205 8.35667
upperback -3.23752 6.39784 2.98344
thorax -2.84765 3.01029 -1.68249
lowerneck -10.3855 1.36527 -3.60897
upperneck 10.2803 2.613 -1.75569
head 4.77051 1.02894 0.226398
rclavicle -2.74447e-014 6.36111e-015
rhumerus -14.7131 -3.41736 -82.4938
rradius 43.1456
rwrist -16.6096
rhand -19.2369 -39.5932
rfingers 7.12502
rthumb 7.07645 -69.4549
lclavicle -2.74447e-014 6.36111e-015
lhumerus -56.7229 19.0328 68.8901
lradius 11.5375
lwrist -16.4072
lhand -12.9906 -8.1589
lfingers 7.12502
lthumb 13.1023 21.4095
rfemur -1.38995 0.570029 30.4418
rtibia 23.2697
rfoot -8.68094 22.9058
rtoes 13.5941
lfemur -39.1027 2.29263 -12.5173
ltibia 28.0124
lfoot -17.5994 9.78961
ltoes -14.8586
71
root 7.67832 15.816 -20.1587 8.42202 -7.90884 -6.46057
lowerback -0.0287231 4.76718 8.42062
upperback -3.27715 6.58151 2.95953
thorax -2.80546 3.1002 -1.7334
lowerneck -9.6585 1.6841 -3.76372
upperneck 9.579 2.96525 -1.39613
head 4.42124 1.2388 0.374063
rclavicle -3.63403e-016 -3.89618e-014
rhumerus -13.5638 -1.72375 -82.3676
rradius 43.8644
rwrist -17.81
rhand -19.4173 -39.1134
rfingers 7.12502
rthumb 6.90231 -68.9809
lclavicle -3.63403e-016 -3.89618e-014
lhumerus -58.4671 19.4 67.4281
lradius 11.7192
lwrist -16.0192
lhand -12.4607 -7.79575
lfingers 7.12502
lthumb 13.613 21.7392
rfemur -0.118061 0.526755 30.129
rtibia 22.0509
rfoot -7.09693 23.4535
rtoes 14.8123
lfemur -39.1792 0.971426 -11.3505
ltibia 25.0968
lfoot -18.5246 10.3665
ltoes -11.5496
72
root 7.69496 15.8121 -19.9094 8.59777 -8.50843 -6.73299
lowerback -0.149182 4.91755 8.7258
upperback -3.22638 6.76484 2.90397
thorax -2.62972 3.19024 -1.93843
lowerneck -9.40995 1.83072 -3.98101
upperneck 8.67082 3.11047 -0.929697
head 4.53363 1.34445 0.611784
rclavicle -7.53456e-014 -3.73715e-014
rhumerus -12.6024 -1.87074 -82.6081
rradius 45.187
rwrist -17.6086
rhand -18.9302 -38.3431
rfingers 7.12502
rthumb 7.37248 -68.1946
lclavicle -7.53456e-014 -3.73715e-014
lhumerus -59.6939 19.1521 66.7858
lradius 12.0335
lwrist -14.444
lhand -11.4666 -7.64451
lfingers 7.12502
lthumb 14.571 21.8237
rfemur 0.993067 0.534217 29.9778
rtibia 21.0246
rfoot -5.28857 23.8493
rtoes 16.0204
lfemur -39.1543 -0.182251 -10.0123
ltibia 22.4076
lfoot -19.8871 10.9958
ltoes -7.80741
73
root 7.70568 15.8092 -19.6585 8.88663 -9.03274 -6.95834
lowerback -0.447315 5.13276 8.94692
upperback -3.21021 7.01388 2.86315
thorax -2.39283 3.31789 -2.06505
lowerneck -9.57683 1.721 -4.07899
upperneck 8.68947 2.98651 -0.937935
head 4.57603 1.27809 0.621192
rclavicle -9.65472e-014 -8.0309e-014
rhumerus -11.3556 -0.929875 -82.4431
rradius 45.7481
rwrist -18.3813
rhand -20.1846 -21.2429
rfingers 7.12502
rthumb 6.16164 -51.1333
lclavicle -9.65472e-014 -8.0309e-014
lhumerus -60.5209 17.8436 67.7586
lradius 12.5482
lwrist -11.7605
lhand -11.4725 -7.27373
lfingers 7.12502
lthumb 14.5652 22.1949
rfemur 1.94409 0.617859 29.8296
rtibia 20.1785
rfoot -4.09968 23.9657
rtoes 13.2787
lfemur -39.2741 -0.625682 -9.14766
ltibia 19.939
lfoot -20.0793 12.372
ltoes -10.3519
74
root 7.71544 15.7853 -19.4027 9.11903 -9.64157 -6.7536
lowerback -0.752742 5.37213 8.61673
upperback -3.24479 7.29388 2.79703
thorax -2.25898 3.46973 -1.92249
lowerneck -9.5369 1.76805 -4.17033
upperneck 8.74734 3.06533 -0.967968
head 4.58686 1.31113 0.632568
rclavicle -1.51325e-014 -2.38542e-014
rhumerus -10.2682 -0.210043 -81.8317
rradius 45.8907
rwrist -17.8096
rhand -19.2881 -11.4178
rfingers 7.12502
rthumb 7.02704 -41.2812
lclavicle -1.51325e-014 -2.38542e-014
lhumerus -61.4843 16.7321 68.639
lradius 12.8803
lwrist -9.72227
lhand -12.2256 -6.47591
lfingers 7.12502
lthumb 13.8396 23.0437
rfemur 3.20824 0.845046 29.2928
rtibia 19.3994
rfoot -4.33332 24.0461
rtoes 4.80379
lfemur -39.4607 -0.731705 -9.05118
ltibia 17.844
lfoot -19.1591 14.3169
ltoes -17.0377
75
root 7.72272 15.7603 -19.1499 9.27297 -10.2359 -6.45167
lowerback -0.974803 5.55311 8.10225
upperback -3.26882 7.50658 2.69734
thorax -2.18669 3.58997 -1.72398
lowerneck -9.16337 1.8825 -4.39107
upperneck 8.37122 3.18933 -0.687097
head 4.36286 1.3902 0.76453
rclavicle -6.82701e-014 -3.57812e-014
rhumerus -9.47169 0.91944 -81.4416
rradius 46.6275
rwrist -18.7754
rhand -22.3952 -15.9942
rfingers 7.12502
rthumb 4.02714 -45.9359
lclavicle -6.82701e-014 -3.57812e-014
lhumerus -62.5781 16.8506 67.6881
lradius 12.7194
lwrist -9.55419
lhand -12.4713 -5.8197
lfingers 7.12502
lthumb 13.6028 23.7159
rfemur 4.48914 1.31789 28.6873
rtibia 18.6012
rfoot -3.85732 24.0286
rtoes 2.75725
lfemur -39.7309 -0.307427 -9.41489
ltibia 16.2388
lfoot -17.6843 15.7953
ltoes -24.9187
76
root 7.72586 15.7414 -18.9099 9.50677 -10.7532 -6.60242
lowerback -1.07225 5.71911 7.9387
upperback -3.32453 7.71998 2.6814
thorax -2.18986 3.69914 -1.6417
lowerneck -8.7634 1.89821 -4.55159
upperneck 7.81105 3.16168 -0.348721
head 4.07288 1.4027 0.890702
rclavicle -5.79582e-015 1.90833e-014
rhumerus -8.55257 1.72803 -81.2169
rradius 47.108
rwrist -19.1554
rhand -24.7081 -27.2363
rfingers 7.12502
rthumb 1.79347 -57.2085
lclavicle -5.79582e-015 1.90833e-014
lhumerus -63.7985 17.3741 65.8058
lradius 12.5667
lwrist -10.0328
lhand -11.8579 -6.06086
lfingers 7.12502
lthumb 14.194 23.4342
rfemur 5.49359 1.9657 28.609
rtibia 17.7847
rfoot -2.66017 23.816
rtoes 7.53631
lfemur -39.9627 -0.792551 -8.41286
ltibia 15.0952
lfoot -19.8866 14.6098
ltoes -17.1406
